<svg id="visual" viewBox="0 0 960 540" width="960" height="540" xmlns="http://www.w3.org/2000/svg" xmlns:xlink="http://www.w3.org/1999/xlink" version="1.1"><rect x="0" y="0" width="960" height="540" fill="#fff"></rect><path d="M537 0L521 5.7C505 11.3 473 22.7 445.7 34C418.3 45.3 395.7 56.7 386.7 67.8C377.7 79 382.3 90 380 101.2C377.7 112.3 368.3 123.7 361.7 135C355 146.3 351 157.7 370.5 169C390 180.3 433 191.7 454.5 202.8C476 214 476 225 494.2 236.2C512.3 247.3 548.7 258.7 532.5 270C516.3 281.3 447.7 292.7 423 304C398.3 315.3 417.7 326.7 427.3 337.8C437 349 437 360 434.3 371.2C431.7 382.3 426.3 393.7 416.3 405C406.3 416.3 391.7 427.7 410.8 439C430 450.3 483 461.7 493.5 472.8C504 484 472 495 460 506.2C448 517.3 456 528.7 460 534.3L464 540L0 540L0 534.3C0 528.7 0 517.3 0 506.2C0 495 0 484 0 472.8C0 461.7 0 450.3 0 439C0 427.7 0 416.3 0 405C0 393.7 0 382.3 0 371.2C0 360 0 349 0 337.8C0 326.7 0 315.3 0 304C0 292.7 0 281.3 0 270C0 258.7 0 247.3 0 236.2C0 225 0 214 0 202.8C0 191.7 0 180.3 0 169C0 157.7 0 146.3 0 135C0 123.7 0 112.3 0 101.2C0 90 0 79 0 67.8C0 56.7 0 45.3 0 34C0 22.7 0 11.3 0 5.7L0 0Z" fill="#0099FF" stroke-linecap="round" stroke-linejoin="miter"></path></svg>